<?xml version="1.0" encoding="UTF-8" standalone="no"?>
<!DOCTYPE svg PUBLIC "-//W3C//DTD SVG 1.1//EN" "http://www.w3.org/Graphics/SVG/1.1/DTD/svg11.dtd">
<svg version="1.1" xmlns="http://www.w3.org/2000/svg" xmlns:xlink="http://www.w3.org/1999/xlink" preserveAspectRatio="xMidYMid meet" viewBox="0 0 640 640" width="640" height="640"><defs><path style="fill: #8C8C8C" d="M263.04 140C252.73 145.9 201.14 175.37 108.28 228.41C57.04 228.41 28.57 228.41 22.87 228.41C10.24 228.41 0 238.65 0 251.28C0 265.01 0 374.8 0 388.52C0 401.16 10.24 411.4 22.87 411.4C28.57 411.4 57.04 411.4 108.28 411.4C201.2 464.48 252.81 493.97 263.14 499.87C274.11 506.14 288.08 502.32 294.34 491.36C296.32 487.9 297.35 483.99 297.35 480.02C297.35 447.99 297.35 191.81 297.35 159.79C297.35 151.63 292.99 144.09 285.92 140C278.84 135.92 270.12 135.92 263.04 140Z" id="b19vMauwXV"></path><path style="fill: #8C8C8C" d="M76.19 142.86L342.21 478.79" id="g6XKYlP60"></path></defs><g><g><g><use  xlink:href="#b19vMauwXV" opacity="1" fill="#000000" fill-opacity="1"></use><g><use xlink:href="#b19vMauwXV" opacity="1" fill-opacity="0" stroke="#000000" stroke-width="1" stroke-opacity="0"></use></g></g><g><use xlink:href="#g6XKYlP60"  opacity="0.99" fill="#9402c1" fill-opacity="1"></use><g><use xlink:href="#g6XKYlP60" opacity="0.99" fill-opacity="0" stroke="#8C8C8C" stroke-width="28" stroke-opacity="1"></use></g><g><use xlink:href="#g6XKYlP60" opacity="0.99" fill-opacity="0" stroke="#8C8C8C" stroke-width="28" stroke-opacity="1"></use></g></g></g></g></svg>
